<svg xmlns="http://www.w3.org/2000/svg" xmlns:xlink="http://www.w3.org/1999/xlink" width="100" zoomAndPan="magnify" viewBox="0 0 75 37.5" height="50" preserveAspectRatio="xMidYMid meet" version="1.0"><defs><g/><clipPath id="d5e6a2dcea"><path d="M 30 6 L 56 6 L 56 22 L 30 22 Z M 30 6 " clip-rule="nonzero"/></clipPath><clipPath id="8887c63f3e"><path d="M 56.910156 11.023438 L 31.070312 22.128906 L 27.855469 14.648438 L 53.695312 3.542969 Z M 56.910156 11.023438 " clip-rule="nonzero"/></clipPath><clipPath id="2f5d05e927"><path d="M 30.996094 22.160156 L 56.835938 11.054688 L 53.621094 3.574219 L 27.78125 14.679688 Z M 30.996094 22.160156 " clip-rule="nonzero"/></clipPath><clipPath id="6c3d1890dc"><path d="M 33 17 L 34 17 L 34 18 L 33 18 Z M 33 17 " clip-rule="nonzero"/></clipPath><clipPath id="af045166a5"><path d="M 56.910156 11.023438 L 31.070312 22.128906 L 27.855469 14.648438 L 53.695312 3.542969 Z M 56.910156 11.023438 " clip-rule="nonzero"/></clipPath><clipPath id="2c5aaaa6db"><path d="M 30.996094 22.160156 L 56.835938 11.054688 L 53.621094 3.574219 L 27.78125 14.679688 Z M 30.996094 22.160156 " clip-rule="nonzero"/></clipPath><clipPath id="4df33a8149"><path d="M 37.652344 11 L 39.351562 11 L 39.351562 12.644531 L 37.652344 12.644531 Z M 37.652344 11 " clip-rule="nonzero"/></clipPath><clipPath id="8f338999a9"><path d="M 37.671875 12.625 C 38.101562 10.78125 39.332031 11.457031 39.332031 11.457031 " clip-rule="nonzero"/></clipPath><clipPath id="d0bc9e7d1d"><path d="M 32 16.105469 L 33.871094 16.105469 L 33.871094 18 L 32 18 Z M 32 16.105469 " clip-rule="nonzero"/></clipPath><clipPath id="1d07242138"><path d="M 33.855469 16.5625 C 31.761719 19.640625 32.933594 16.316406 33.363281 16.195312 C 33.546875 16.132812 33.855469 16.5625 33.855469 16.5625 " clip-rule="nonzero"/></clipPath><clipPath id="f8d61c57dc"><path d="M 32 16.496094 L 33.800781 16.496094 L 33.800781 19 L 32 19 Z M 32 16.496094 " clip-rule="nonzero"/></clipPath><clipPath id="8f3a2037d5"><path d="M 33.792969 16.808594 C 31.824219 19.640625 32.808594 16.75 33.238281 16.5625 C 33.425781 16.503906 33.792969 16.808594 33.792969 16.808594 " clip-rule="nonzero"/></clipPath><clipPath id="b816ac872c"><path d="M 32.226562 10.199219 L 39.769531 10.199219 L 39.769531 19.289062 L 32.226562 19.289062 Z M 32.226562 10.199219 " clip-rule="nonzero"/></clipPath><clipPath id="6bd4c28415"><path d="M 39.722656 11.0625 C 34.988281 14.761719 32.398438 19.277344 32.324219 19.203125 C 32.25 19.128906 34.617188 14.097656 36.023438 12.617188 C 37.058594 11.507812 38.835938 10.25 39.355469 10.394531 C 39.578125 10.46875 39.722656 11.0625 39.722656 11.0625 " clip-rule="nonzero"/></clipPath><clipPath id="30ff53313e"><path d="M 31.265625 17 L 34 17 L 34 20.578125 L 31.265625 20.578125 Z M 31.265625 17 " clip-rule="nonzero"/></clipPath><clipPath id="338d584c17"><path d="M 31.28125 19.984375 C 35.425781 14.359375 33.132812 18.578125 32.46875 19.613281 C 32.171875 20.058594 31.949219 20.574219 31.726562 20.574219 C 31.578125 20.574219 31.28125 19.984375 31.28125 19.984375 " clip-rule="nonzero"/></clipPath></defs><g clip-path="url(#d5e6a2dcea)"><g clip-path="url(#8887c63f3e)"><g clip-path="url(#2f5d05e927)"><path fill="#000000" d="M 31.316406 21.769531 C 31.292969 21.757812 31.285156 21.738281 31.28125 21.714844 C 31.207031 21.675781 31.105469 21.773438 31.039062 21.671875 C 30.789062 21.574219 30.78125 21.367188 30.808594 21.148438 C 30.886719 20.53125 31.066406 19.941406 31.285156 19.359375 C 32.058594 17.28125 33.230469 15.464844 34.734375 13.832031 C 37.363281 10.984375 40.636719 9.339844 44.382812 8.570312 C 46.117188 8.214844 47.886719 8.164062 49.652344 8.199219 C 50.691406 8.21875 51.726562 8.304688 52.765625 8.359375 C 52.800781 8.378906 52.835938 8.398438 52.875 8.417969 C 52.917969 8.402344 52.96875 8.394531 52.996094 8.363281 C 52.996094 8.363281 52.996094 8.363281 53 8.363281 C 53.019531 8.339844 52.984375 8.308594 52.949219 8.308594 C 52.636719 8.042969 52.28125 7.851562 51.914062 7.679688 C 51.664062 7.5625 51.429688 7.429688 51.238281 7.230469 C 50.699219 6.980469 50.5 6.550781 50.664062 6.03125 C 51.851562 5.988281 52.816406 6.527344 53.757812 7.15625 C 54.105469 7.390625 54.46875 7.601562 54.832031 7.816406 C 55.695312 8.332031 55.542969 8.304688 55.539062 9.125 C 55.535156 9.308594 55.492188 9.488281 55.433594 9.664062 C 55.410156 9.726562 55.382812 9.785156 55.316406 9.8125 C 55.304688 10.019531 55.144531 10.09375 54.984375 10.152344 C 54.507812 10.335938 54.03125 10.515625 53.558594 10.695312 C 53.480469 10.789062 53.375 10.816406 53.261719 10.839844 C 53.191406 10.9375 53.082031 10.964844 52.972656 10.996094 C 52.933594 11.074219 52.847656 11.085938 52.78125 11.125 C 51.890625 11.667969 51.074219 12.300781 50.367188 13.074219 C 50.3125 13.128906 50.253906 13.183594 50.199219 13.238281 C 50.132812 13.304688 50.058594 13.382812 49.964844 13.335938 C 49.890625 13.300781 49.859375 13.191406 49.882812 13.125 C 49.980469 12.835938 49.882812 12.535156 49.953125 12.25 C 49.980469 12.121094 50.0625 12.015625 50.144531 11.910156 C 50.78125 11.097656 51.546875 10.417969 52.382812 9.816406 C 52.457031 9.761719 52.542969 9.71875 52.605469 9.652344 C 52.675781 9.574219 52.617188 9.507812 52.546875 9.460938 C 52.453125 9.515625 52.371094 9.503906 52.289062 9.441406 C 52.195312 9.472656 52.105469 9.496094 52.019531 9.421875 C 52.003906 9.441406 51.984375 9.441406 51.96875 9.421875 C 51.882812 9.453125 51.796875 9.472656 51.714844 9.40625 C 51.648438 9.417969 51.585938 9.433594 51.519531 9.433594 C 50.816406 9.417969 50.109375 9.386719 49.402344 9.378906 C 48.761719 9.371094 48.121094 9.382812 47.480469 9.386719 C 47.3125 9.40625 47.144531 9.433594 46.976562 9.449219 C 45.332031 9.601562 43.734375 9.949219 42.191406 10.535156 C 41.640625 10.742188 41.097656 10.96875 40.550781 11.1875 C 40.472656 11.289062 40.355469 11.3125 40.238281 11.335938 C 40.167969 11.4375 40.058594 11.460938 39.949219 11.484375 C 39.886719 11.582031 39.78125 11.597656 39.679688 11.628906 C 39.644531 11.699219 39.582031 11.722656 39.511719 11.726562 C 39.496094 11.753906 39.476562 11.761719 39.449219 11.757812 C 39.410156 11.832031 39.324219 11.847656 39.261719 11.890625 C 38.945312 12.09375 38.59375 12.242188 38.300781 12.488281 C 38.261719 12.472656 38.15625 12.5 38.253906 12.398438 C 38.320312 12.328125 38.3125 12.300781 38.285156 12.292969 C 38.257812 12.28125 38.210938 12.285156 38.175781 12.285156 C 37.199219 12.964844 36.3125 13.753906 35.480469 14.601562 C 35.410156 14.6875 35.339844 14.773438 35.269531 14.859375 C 34.851562 15.371094 34.429688 15.882812 34.011719 16.394531 C 34.011719 16.421875 34.003906 16.445312 33.988281 16.460938 C 33.976562 16.472656 33.960938 16.484375 33.945312 16.488281 C 33.945312 16.535156 33.921875 16.566406 33.882812 16.582031 C 33.882812 16.625 33.859375 16.65625 33.816406 16.671875 C 33.820312 16.71875 33.796875 16.75 33.753906 16.765625 C 33.753906 16.8125 33.734375 16.84375 33.691406 16.859375 C 33.695312 16.902344 33.671875 16.933594 33.628906 16.949219 L 33.628906 16.953125 C 33.632812 16.996094 33.613281 17.027344 33.570312 17.042969 C 33.550781 17.074219 33.53125 17.105469 33.511719 17.136719 L 33.507812 17.140625 C 33.511719 17.183594 33.492188 17.214844 33.449219 17.230469 L 33.449219 17.234375 C 33.453125 17.28125 33.433594 17.3125 33.390625 17.328125 L 33.386719 17.332031 C 33.394531 17.375 33.375 17.40625 33.332031 17.421875 L 33.328125 17.425781 C 33.332031 17.472656 33.3125 17.5 33.269531 17.519531 C 33.273438 17.566406 33.253906 17.597656 33.210938 17.613281 C 33.050781 17.917969 32.894531 18.222656 32.734375 18.527344 C 32.597656 18.660156 32.542969 18.835938 32.46875 19 C 32.480469 19.015625 32.496094 19.027344 32.511719 19.039062 C 32.539062 19.050781 32.566406 19.058594 32.597656 19.054688 C 32.554688 19.183594 32.519531 19.316406 32.417969 19.417969 C 32.386719 19.445312 32.355469 19.476562 32.339844 19.519531 C 32.367188 19.484375 32.390625 19.449219 32.417969 19.417969 C 32.414062 19.460938 32.402344 19.503906 32.355469 19.515625 C 32.367188 19.582031 32.34375 19.636719 32.296875 19.683594 C 32.308594 19.726562 32.296875 19.761719 32.253906 19.78125 C 32.253906 19.828125 32.246094 19.867188 32.203125 19.890625 C 32.203125 19.914062 32.199219 19.933594 32.183594 19.953125 C 32.164062 20.085938 32.113281 20.207031 32.039062 20.320312 C 32.019531 20.414062 32 20.507812 31.933594 20.585938 C 31.945312 20.648438 31.910156 20.699219 31.882812 20.75 C 31.804688 21.121094 31.660156 21.472656 31.652344 21.875 C 31.523438 21.8125 31.390625 21.890625 31.316406 21.769531 Z M 51.949219 9.34375 C 51.949219 9.347656 51.949219 9.347656 51.949219 9.347656 C 51.949219 9.34375 51.949219 9.34375 51.949219 9.34375 C 51.949219 9.34375 51.949219 9.347656 51.949219 9.347656 C 51.949219 9.347656 51.949219 9.347656 51.949219 9.351562 C 51.949219 9.347656 51.949219 9.347656 51.949219 9.34375 Z M 33.15625 17.292969 C 33.160156 17.285156 33.160156 17.273438 33.164062 17.265625 C 33.164062 17.269531 33.164062 17.269531 33.160156 17.273438 C 33.15625 17.277344 33.152344 17.285156 33.148438 17.292969 C 33.148438 17.292969 33.152344 17.292969 33.15625 17.292969 Z M 34.007812 16.398438 C 34.003906 16.398438 34.003906 16.398438 34.003906 16.398438 C 34 16.394531 34 16.394531 33.996094 16.390625 L 33.988281 16.390625 L 34.003906 16.398438 C 34.003906 16.398438 34.003906 16.398438 34.003906 16.402344 C 34.003906 16.398438 34.003906 16.398438 34.007812 16.398438 Z M 33.113281 17.292969 C 33.125 17.292969 33.136719 17.292969 33.144531 17.292969 C 33.152344 17.285156 33.15625 17.28125 33.160156 17.273438 C 33.148438 17.285156 33.132812 17.292969 33.113281 17.292969 Z M 33.183594 17.230469 C 33.1875 17.222656 33.195312 17.214844 33.195312 17.207031 C 33.195312 17.207031 33.199219 17.207031 33.199219 17.203125 C 33.191406 17.210938 33.1875 17.222656 33.183594 17.230469 Z M 31.226562 21.058594 C 31.226562 21.0625 31.226562 21.0625 31.226562 21.0625 C 31.226562 21.0625 31.222656 21.0625 31.222656 21.0625 C 31.226562 21.066406 31.222656 21.066406 31.226562 21.066406 C 31.226562 21.066406 31.226562 21.0625 31.226562 21.058594 Z M 31.261719 20.898438 C 31.261719 20.894531 31.261719 20.894531 31.261719 20.890625 C 31.261719 20.894531 31.261719 20.894531 31.261719 20.898438 Z M 32.28125 19.550781 C 32.273438 19.550781 32.265625 19.550781 32.257812 19.546875 C 32.257812 19.554688 32.257812 19.558594 32.261719 19.5625 C 32.265625 19.558594 32.273438 19.558594 32.28125 19.550781 Z M 32.203125 19.839844 C 32.195312 19.851562 32.191406 19.867188 32.191406 19.882812 C 32.191406 19.882812 32.191406 19.882812 32.195312 19.882812 C 32.195312 19.867188 32.195312 19.851562 32.203125 19.839844 Z M 32.203125 19.839844 " fill-opacity="1" fill-rule="nonzero"/></g></g></g><g clip-path="url(#6c3d1890dc)"><g clip-path="url(#af045166a5)"><g clip-path="url(#2c5aaaa6db)"><path fill="#000000" d="M 33.503906 17.140625 C 33.523438 17.109375 33.546875 17.078125 33.5625 17.050781 C 33.566406 17.09375 33.546875 17.125 33.503906 17.140625 Z M 33.503906 17.140625 " fill-opacity="1" fill-rule="nonzero"/></g></g></g><g fill="#000000" fill-opacity="1"><g transform="translate(8.672697, 29.81781)"><g><path d="M 4.25 -1.25 C 4.3125 -0.664062 4.429688 -0.25 4.609375 0 L 3.515625 0 C 3.390625 -0.332031 3.304688 -0.703125 3.265625 -1.109375 C 3.203125 -1.671875 2.976562 -1.96875 2.59375 -2 C 2.507812 -2 2.382812 -2 2.21875 -2 L 1.640625 -2 L 1.640625 0 L 0.640625 0 L 0.640625 -4.96875 L 2.453125 -4.96875 C 2.722656 -4.96875 2.960938 -4.957031 3.171875 -4.9375 C 3.566406 -4.882812 3.882812 -4.75 4.125 -4.53125 C 4.363281 -4.320312 4.484375 -4.015625 4.484375 -3.609375 C 4.484375 -3.296875 4.394531 -3.035156 4.21875 -2.828125 C 4.050781 -2.628906 3.816406 -2.488281 3.515625 -2.40625 C 3.941406 -2.238281 4.1875 -1.851562 4.25 -1.25 Z M 1.640625 -2.75 L 2.3125 -2.75 C 2.507812 -2.75 2.644531 -2.75 2.71875 -2.75 C 3.195312 -2.789062 3.4375 -3.03125 3.4375 -3.46875 C 3.4375 -3.6875 3.378906 -3.847656 3.265625 -3.953125 C 3.148438 -4.066406 2.988281 -4.140625 2.78125 -4.171875 C 2.664062 -4.179688 2.523438 -4.1875 2.359375 -4.1875 L 1.640625 -4.1875 Z M 1.640625 -2.75 "/></g></g></g><g fill="#000000" fill-opacity="1"><g transform="translate(13.38477, 29.81781)"><g><path d="M 4.234375 -0.78125 L 4.234375 0 L 0.640625 0 L 0.640625 -4.96875 L 4.15625 -4.96875 L 4.15625 -4.1875 L 1.640625 -4.1875 L 1.640625 -2.875 L 3.96875 -2.875 L 3.96875 -2.09375 L 1.640625 -2.09375 L 1.640625 -0.78125 Z M 4.234375 -0.78125 "/></g></g></g><g fill="#000000" fill-opacity="1"><g transform="translate(17.823052, 29.81781)"><g><path d="M 2.765625 -5.078125 C 3.421875 -5.078125 3.929688 -4.914062 4.296875 -4.59375 C 4.660156 -4.28125 4.867188 -3.867188 4.921875 -3.359375 L 4.921875 -3.28125 L 3.9375 -3.28125 L 3.921875 -3.359375 C 3.785156 -4.003906 3.398438 -4.328125 2.765625 -4.328125 C 2.359375 -4.328125 2.03125 -4.164062 1.78125 -3.84375 C 1.539062 -3.519531 1.421875 -3.078125 1.421875 -2.515625 C 1.421875 -1.910156 1.539062 -1.445312 1.78125 -1.125 C 2.03125 -0.800781 2.351562 -0.640625 2.75 -0.640625 C 3.0625 -0.640625 3.3125 -0.726562 3.5 -0.90625 C 3.695312 -1.082031 3.828125 -1.332031 3.890625 -1.65625 L 3.90625 -1.71875 L 4.890625 -1.71875 L 4.890625 -1.65625 C 4.835938 -1.113281 4.613281 -0.6875 4.21875 -0.375 C 3.832031 -0.0625 3.328125 0.09375 2.703125 0.09375 C 2.003906 0.09375 1.441406 -0.132812 1.015625 -0.59375 C 0.585938 -1.050781 0.375 -1.671875 0.375 -2.453125 C 0.375 -3.253906 0.597656 -3.890625 1.046875 -4.359375 C 1.492188 -4.835938 2.066406 -5.078125 2.765625 -5.078125 Z M 2.765625 -5.078125 "/></g></g></g><g fill="#000000" fill-opacity="1"><g transform="translate(22.996245, 29.81781)"><g><path d="M 2.828125 -5.078125 C 3.585938 -5.078125 4.1875 -4.84375 4.625 -4.375 C 5.0625 -3.90625 5.28125 -3.273438 5.28125 -2.484375 C 5.28125 -1.703125 5.0625 -1.078125 4.625 -0.609375 C 4.1875 -0.140625 3.585938 0.09375 2.828125 0.09375 C 2.066406 0.09375 1.46875 -0.140625 1.03125 -0.609375 C 0.59375 -1.078125 0.375 -1.703125 0.375 -2.484375 C 0.375 -3.273438 0.585938 -3.90625 1.015625 -4.375 C 1.453125 -4.84375 2.054688 -5.078125 2.828125 -5.078125 Z M 1.78125 -1.125 C 2.03125 -0.800781 2.375 -0.640625 2.8125 -0.640625 C 3.257812 -0.640625 3.609375 -0.800781 3.859375 -1.125 C 4.109375 -1.457031 4.234375 -1.910156 4.234375 -2.484375 C 4.234375 -3.066406 4.109375 -3.519531 3.859375 -3.84375 C 3.609375 -4.164062 3.265625 -4.328125 2.828125 -4.328125 C 2.378906 -4.328125 2.03125 -4.164062 1.78125 -3.84375 C 1.53125 -3.519531 1.40625 -3.066406 1.40625 -2.484375 C 1.40625 -1.898438 1.53125 -1.445312 1.78125 -1.125 Z M 1.78125 -1.125 "/></g></g></g><g fill="#000000" fill-opacity="1"><g transform="translate(28.508074, 29.81781)"><g><path d="M 6 -4.96875 L 6 0 L 5 0 L 5 -2.296875 C 5 -3.085938 5.003906 -3.65625 5.015625 -4 C 4.878906 -3.425781 4.726562 -2.863281 4.5625 -2.3125 L 3.859375 0 L 2.78125 0 L 2.0625 -2.3125 C 1.882812 -2.925781 1.738281 -3.484375 1.625 -3.984375 C 1.632812 -3.640625 1.640625 -3.078125 1.640625 -2.296875 L 1.640625 0 L 0.640625 0 L 0.640625 -4.96875 L 2.21875 -4.96875 L 3.328125 -0.921875 L 4.453125 -4.96875 Z M 6 -4.96875 "/></g></g></g><g fill="#000000" fill-opacity="1"><g transform="translate(34.970962, 29.81781)"><g><path d="M 6 -4.96875 L 6 0 L 5 0 L 5 -2.296875 C 5 -3.085938 5.003906 -3.65625 5.015625 -4 C 4.878906 -3.425781 4.726562 -2.863281 4.5625 -2.3125 L 3.859375 0 L 2.78125 0 L 2.0625 -2.3125 C 1.882812 -2.925781 1.738281 -3.484375 1.625 -3.984375 C 1.632812 -3.640625 1.640625 -3.078125 1.640625 -2.296875 L 1.640625 0 L 0.640625 0 L 0.640625 -4.96875 L 2.21875 -4.96875 L 3.328125 -0.921875 L 4.453125 -4.96875 Z M 6 -4.96875 "/></g></g></g><g fill="#000000" fill-opacity="1"><g transform="translate(41.433851, 29.81781)"><g><path d="M 4.234375 -0.78125 L 4.234375 0 L 0.640625 0 L 0.640625 -4.96875 L 4.15625 -4.96875 L 4.15625 -4.1875 L 1.640625 -4.1875 L 1.640625 -2.875 L 3.96875 -2.875 L 3.96875 -2.09375 L 1.640625 -2.09375 L 1.640625 -0.78125 Z M 4.234375 -0.78125 "/></g></g></g><g fill="#000000" fill-opacity="1"><g transform="translate(45.872132, 29.81781)"><g><path d="M 5 0 L 3.640625 0 L 1.59375 -3.78125 C 1.625 -3.320312 1.640625 -2.8125 1.640625 -2.25 L 1.640625 0 L 0.640625 0 L 0.640625 -4.96875 L 1.953125 -4.96875 L 4.046875 -1.125 C 4.023438 -1.570312 4.015625 -2.09375 4.015625 -2.6875 L 4.015625 -4.96875 L 5 -4.96875 Z M 5 0 "/></g></g></g><g fill="#000000" fill-opacity="1"><g transform="translate(51.347935, 29.81781)"><g><path d="M 2.984375 -4.9375 C 3.597656 -4.863281 4.09375 -4.628906 4.46875 -4.234375 C 4.84375 -3.835938 5.03125 -3.273438 5.03125 -2.546875 C 5.03125 -1.816406 4.835938 -1.234375 4.453125 -0.796875 C 4.066406 -0.359375 3.570312 -0.101562 2.96875 -0.03125 C 2.800781 -0.0078125 2.59375 0 2.34375 0 L 0.640625 0 L 0.640625 -4.96875 L 2.359375 -4.96875 C 2.609375 -4.96875 2.816406 -4.957031 2.984375 -4.9375 Z M 2.75 -0.8125 C 3.132812 -0.851562 3.4375 -1.023438 3.65625 -1.328125 C 3.875 -1.628906 3.984375 -2.03125 3.984375 -2.53125 C 3.984375 -3.007812 3.875 -3.390625 3.65625 -3.671875 C 3.4375 -3.953125 3.140625 -4.113281 2.765625 -4.15625 C 2.617188 -4.175781 2.441406 -4.1875 2.234375 -4.1875 L 1.640625 -4.1875 L 1.640625 -0.78125 L 2.21875 -0.78125 C 2.46875 -0.78125 2.644531 -0.789062 2.75 -0.8125 Z M 2.75 -0.8125 "/></g></g></g><g fill="#000000" fill-opacity="1"><g transform="translate(56.614794, 29.81781)"><g><path d="M 4.234375 -0.78125 L 4.234375 0 L 0.640625 0 L 0.640625 -4.96875 L 4.15625 -4.96875 L 4.15625 -4.1875 L 1.640625 -4.1875 L 1.640625 -2.875 L 3.96875 -2.875 L 3.96875 -2.09375 L 1.640625 -2.09375 L 1.640625 -0.78125 Z M 4.234375 -0.78125 "/></g></g></g><g fill="#000000" fill-opacity="1"><g transform="translate(61.053076, 29.81781)"><g><path d="M 2.984375 -4.9375 C 3.597656 -4.863281 4.09375 -4.628906 4.46875 -4.234375 C 4.84375 -3.835938 5.03125 -3.273438 5.03125 -2.546875 C 5.03125 -1.816406 4.835938 -1.234375 4.453125 -0.796875 C 4.066406 -0.359375 3.570312 -0.101562 2.96875 -0.03125 C 2.800781 -0.0078125 2.59375 0 2.34375 0 L 0.640625 0 L 0.640625 -4.96875 L 2.359375 -4.96875 C 2.609375 -4.96875 2.816406 -4.957031 2.984375 -4.9375 Z M 2.75 -0.8125 C 3.132812 -0.851562 3.4375 -1.023438 3.65625 -1.328125 C 3.875 -1.628906 3.984375 -2.03125 3.984375 -2.53125 C 3.984375 -3.007812 3.875 -3.390625 3.65625 -3.671875 C 3.4375 -3.953125 3.140625 -4.113281 2.765625 -4.15625 C 2.617188 -4.175781 2.441406 -4.1875 2.234375 -4.1875 L 1.640625 -4.1875 L 1.640625 -0.78125 L 2.21875 -0.78125 C 2.46875 -0.78125 2.644531 -0.789062 2.75 -0.8125 Z M 2.75 -0.8125 "/></g></g></g><g clip-path="url(#4df33a8149)"><g clip-path="url(#8f338999a9)"><path fill="#000000" d="M 35.207031 8.503906 L 41.792969 8.503906 L 41.792969 15.085938 L 35.207031 15.085938 Z M 35.207031 8.503906 " fill-opacity="1" fill-rule="nonzero"/></g></g><g clip-path="url(#d0bc9e7d1d)"><g clip-path="url(#1d07242138)"><path fill="#000000" d="M 29.363281 13.734375 L 36.316406 13.734375 L 36.316406 22.164062 L 29.363281 22.164062 Z M 29.363281 13.734375 " fill-opacity="1" fill-rule="nonzero"/></g></g><g clip-path="url(#f8d61c57dc)"><g clip-path="url(#8f3a2037d5)"><path fill="#000000" d="M 29.425781 14.101562 L 36.253906 14.101562 L 36.253906 22.164062 L 29.425781 22.164062 Z M 29.425781 14.101562 " fill-opacity="1" fill-rule="nonzero"/></g></g><g clip-path="url(#b816ac872c)"><g clip-path="url(#6bd4c28415)"><path fill="#000000" d="M 29.363281 7.4375 L 42.683594 7.4375 L 42.683594 22.164062 L 29.363281 22.164062 Z M 29.363281 7.4375 " fill-opacity="1" fill-rule="nonzero"/></g></g><g clip-path="url(#30ff53313e)"><g clip-path="url(#338d584c17)"><path fill="#000000" d="M 28.324219 11.324219 L 38.238281 11.324219 L 38.238281 23.535156 L 28.324219 23.535156 Z M 28.324219 11.324219 " fill-opacity="1" fill-rule="nonzero"/></g></g></svg>